<svg width="20" height="20" viewBox="0 0 20 20" fill="none" xmlns="http://www.w3.org/2000/svg">
<g clip-path="url(#clip0_55_677)">
<path d="M12.7587 7.24604C12.5 7.24604 12.2903 7.45572 12.2903 7.71442V16.5669C12.2903 16.8254 12.5 17.0353 12.7587 17.0353C13.0174 17.0353 13.2271 16.8254 13.2271 16.5669V7.71442C13.2271 7.45572 13.0174 7.24604 12.7587 7.24604Z" fill="#ED1C24"/>
<path d="M7.23181 7.24604C6.9731 7.24604 6.76343 7.45572 6.76343 7.71442V16.5669C6.76343 16.8254 6.9731 17.0353 7.23181 17.0353C7.49052 17.0353 7.7002 16.8254 7.7002 16.5669V7.71442C7.7002 7.45572 7.49052 7.24604 7.23181 7.24604Z" fill="#ED1C24"/>
<path d="M3.2037 5.95412V17.4941C3.2037 18.1762 3.45381 18.8167 3.89072 19.2763C4.32562 19.7372 4.93086 19.9988 5.56427 19.9999H14.4262C15.0598 19.9988 15.6651 19.7372 16.0998 19.2763C16.5367 18.8167 16.7868 18.1762 16.7868 17.4941V5.95412C17.6553 5.72359 18.2181 4.88453 18.1019 3.99332C17.9856 3.1023 17.2264 2.43577 16.3277 2.43558H13.9297V1.8501C13.9324 1.35775 13.7377 0.884979 13.3892 0.537169C13.0406 0.189541 12.5671 -0.00403276 12.0748 -7.59975e-06H7.9157C7.42335 -0.00403276 6.94984 0.189541 6.6013 0.537169C6.25276 0.884979 6.05809 1.35775 6.06083 1.8501V2.43558H3.66275C2.76404 2.43577 2.00493 3.1023 1.88857 3.99332C1.77238 4.88453 2.33518 5.72359 3.2037 5.95412ZM14.4262 19.0632H5.56427C4.76345 19.0632 4.14046 18.3752 4.14046 17.4941V5.99529H15.85V17.4941C15.85 18.3752 15.227 19.0632 14.4262 19.0632ZM6.9976 1.8501C6.99448 1.60622 7.09036 1.37148 7.26344 1.19931C7.43634 1.02714 7.67163 0.93255 7.9157 0.936758H12.0748C12.3189 0.93255 12.5541 1.02714 12.727 1.19931C12.9001 1.37129 12.996 1.60622 12.9929 1.8501V2.43558H6.9976V1.8501ZM3.66275 3.37235H16.3277C16.7934 3.37235 17.1708 3.7498 17.1708 4.21544C17.1708 4.68107 16.7934 5.05853 16.3277 5.05853H3.66275C3.19711 5.05853 2.81966 4.68107 2.81966 4.21544C2.81966 3.7498 3.19711 3.37235 3.66275 3.37235Z" fill="#ED1C24"/>
<path d="M9.99524 7.24604C9.73653 7.24604 9.52686 7.45572 9.52686 7.71442V16.5669C9.52686 16.8254 9.73653 17.0353 9.99524 17.0353C10.2539 17.0353 10.4636 16.8254 10.4636 16.5669V7.71442C10.4636 7.45572 10.2539 7.24604 9.99524 7.24604Z" fill="#ED1C24"/>
</g>
<defs>
<clipPath id="clip0_55_677">
<rect width="20" height="20" fill="white"/>
</clipPath>
</defs>
</svg>
