<svg width="24" height="24" viewBox="0 0 24 24" fill="none" xmlns="http://www.w3.org/2000/svg">
<rect x="0.074707" width="23.1939" height="24" rx="11.5969" fill="url(#paint0_linear_55_870)"/>
<g clip-path="url(#clip0_55_870)">
<path d="M17.0394 7H6.349C6.09879 7 5.896 7.20984 5.896 7.46875C5.896 8.77411 6.43677 10.0203 7.37967 10.8876L9.3636 12.7123C9.7076 13.0287 9.90491 13.4833 9.90491 13.9597V18.5307C9.90491 18.9042 10.3084 19.1282 10.6091 18.9206L13.2817 17.077C13.4077 16.9901 13.4835 16.8438 13.4835 16.687V13.9597C13.4835 13.4833 13.6808 13.0287 14.0248 12.7123L16.0086 10.8876C16.9515 10.0203 17.4923 8.77411 17.4923 7.46875C17.4923 7.20984 17.2895 7 17.0394 7ZM15.4067 10.1869L13.4229 12.0116C12.8856 12.5058 12.5775 13.2158 12.5775 13.9596V16.4362L10.8108 17.6548V13.9597C10.8108 13.2158 10.5027 12.5058 9.96543 12.0116L7.98159 10.187C7.34579 9.60202 6.93994 8.80057 6.83129 7.93741H16.557C16.4483 8.80057 16.0426 9.60202 15.4067 10.1869Z" fill="white"/>
</g>
<defs>
<linearGradient id="paint0_linear_55_870" x1="14.396" y1="24" x2="14.396" y2="0" gradientUnits="userSpaceOnUse">
<stop stop-color="#106DB6"/>
<stop offset="1" stop-color="#1487E1"/>
</linearGradient>
<clipPath id="clip0_55_870">
<rect x="5.87329" y="7" width="11.5969" height="12" fill="white"/>
</clipPath>
</defs>
</svg>
