<svg width="20" height="20" viewBox="0 0 20 20" fill="none" xmlns="http://www.w3.org/2000/svg">
<g clip-path="url(#clip0_55_752)">
<path d="M5.11518 0.409281C2.95166 0.641348 1.30806 1.97046 0.649775 4.01688C0.343695 4.96624 0.356274 4.70042 0.356274 10.0844V14.9156L0.45271 15.3924C0.897154 17.5949 2.285 19.1013 4.32692 19.5992C5.06487 19.7806 5.68961 19.7975 10.4611 19.7764C15.2577 19.7595 15.1026 19.7637 15.9328 19.5106C17.7819 18.9409 19.0439 17.4726 19.48 15.3797C19.5554 15.0211 19.5596 14.7384 19.5596 10.0844C19.5596 5.49367 19.5554 5.14346 19.4842 4.78903C18.981 2.30802 17.3164 0.721518 14.9055 0.426159C14.5533 0.383965 5.50512 0.367086 5.11518 0.409281ZM15.3206 1.90717C16.7253 2.29536 17.6561 3.2616 18.0628 4.74683L18.176 5.16878V10.0844V15L18.0586 15.4219C17.8489 16.1772 17.5554 16.7173 17.09 17.211C16.4485 17.8861 15.6686 18.2447 14.5953 18.3544C14.2934 18.3882 12.7043 18.3966 9.64349 18.384C4.74621 18.3671 4.94747 18.3755 4.23468 18.1266C3.72734 17.9494 3.32902 17.6962 2.91393 17.2785C2.27242 16.6329 1.91183 15.865 1.76089 14.8312C1.73573 14.6498 1.71896 12.827 1.71896 10.0633C1.71896 5.11814 1.71476 5.17721 1.9873 4.37975C2.19694 3.75527 2.43175 3.37553 2.89296 2.90717C3.31225 2.48101 3.58059 2.29958 4.1089 2.08017C4.39401 1.96202 4.84684 1.84388 5.17808 1.80169C5.24936 1.78903 7.46319 1.78481 10.1047 1.78903L14.9055 1.79325L15.3206 1.90717Z" fill="#106DB6"/>
<path d="M10.7245 5.01953C10.2675 5.11719 9.88861 5.4375 9.76556 5.83594C9.71673 5.99219 9.70696 6.26367 9.74603 6.42578C9.83196 6.79101 10.1503 7.125 10.537 7.25781C10.7421 7.32812 11.0429 7.34375 11.2538 7.29687C11.8046 7.17383 12.207 6.70312 12.207 6.18164C12.207 5.85937 12.1035 5.61523 11.8671 5.3789C11.6933 5.20508 11.5859 5.13867 11.3671 5.06445C11.2031 5.00976 10.8808 4.98633 10.7245 5.01953Z" fill="#106DB6"/>
<path d="M9.5409 8.40039C9.2284 8.43359 8.83777 8.54492 8.24012 8.77344L7.93348 8.89062L7.86512 9.16601C7.82605 9.31836 7.79871 9.44531 7.80262 9.44922C7.80652 9.45312 7.90613 9.42383 8.02527 9.38672C8.41785 9.25976 8.80066 9.24805 9.03504 9.35742C9.20105 9.43555 9.27723 9.61523 9.27723 9.92773C9.27723 10.2246 9.20691 10.5312 8.84559 11.8027C8.5741 12.7656 8.5116 13.0273 8.47449 13.3691C8.4159 13.9121 8.52137 14.2695 8.82801 14.5723C9.13074 14.873 9.49402 14.9922 10.0975 14.9883C10.4823 14.9883 10.6464 14.9629 10.9686 14.8535C11.2772 14.752 11.9022 14.5098 11.9257 14.4844C11.9471 14.4648 12.0761 13.9453 12.0643 13.9336C12.0624 13.9297 11.9999 13.9492 11.9276 13.9746C11.5604 14.1094 11.119 14.1367 10.871 14.043C10.7382 13.9922 10.6757 13.9355 10.6171 13.8086C10.5819 13.7324 10.5761 13.6855 10.578 13.457C10.58 13.0957 10.6229 12.9004 10.9667 11.6797C11.2792 10.5762 11.3143 10.4355 11.3475 10.1465C11.4276 9.4668 11.3456 9.13281 11.0175 8.80859C10.8905 8.68359 10.8124 8.62305 10.703 8.57031C10.3788 8.41016 9.98816 8.35351 9.5409 8.40039Z" fill="#106DB6"/>
</g>
<defs>
<clipPath id="clip0_55_752">
<rect width="20" height="20" fill="white"/>
</clipPath>
</defs>
</svg>
