<svg width="18" height="18" viewBox="0 0 18 18" fill="none" xmlns="http://www.w3.org/2000/svg">
<path d="M17.2062 14.1845L14.3432 11.2219C14.8637 10.1446 15.2108 8.88778 15.2108 7.63092C15.2108 3.41147 11.9139 0 7.83616 0C3.75843 0 0.461548 3.41147 0.461548 7.63092C0.461548 11.8504 3.75843 15.2618 7.83616 15.2618C9.0508 15.2618 10.2654 14.9027 11.3066 14.3641L14.1696 17.3267C15.0372 18.2244 16.3386 18.2244 17.2062 17.3267C17.9871 16.4289 17.9871 15.0823 17.2062 14.1845ZM7.83616 13.4663C4.71279 13.4663 2.19675 10.8628 2.19675 7.63092C2.19675 4.399 4.71279 1.79551 7.83616 1.79551C10.9595 1.79551 13.4756 4.399 13.4756 7.63092C13.4756 10.8628 10.9595 13.4663 7.83616 13.4663Z" fill="#106DB6"/>
</svg>
