<svg width="20" height="20" viewBox="0 0 20 20" fill="none" xmlns="http://www.w3.org/2000/svg">
<path d="M1.89203 16H2.00015L7.21634 14.8649C7.31794 14.8479 7.41209 14.8009 7.48658 14.7297L16.3243 5.89195C16.9699 5.24775 17.3301 4.37152 17.3243 3.45956C17.3255 2.5405 16.9665 1.65761 16.3243 1.00011C15.6802 0.354505 14.8039 -0.00569832 13.8919 0.000147291C12.9741 -0.00797448 12.0937 0.363713 11.4595 1.02716L2.64875 9.8649C2.57105 9.92744 2.51441 10.0123 2.48658 10.1081L1.35149 15.3243C1.32051 15.5116 1.38072 15.7024 1.51367 15.8379C1.61346 15.9397 1.74946 15.998 1.89203 16ZM13.8919 1.08122C15.1905 1.08112 16.2433 2.13379 16.2434 3.4324C16.2434 3.44145 16.2433 3.4505 16.2432 3.45956C16.2521 4.07821 16.008 4.67369 15.5676 5.10817L12.2433 1.75683C12.6813 1.32162 13.2745 1.07848 13.8919 1.08122ZM11.4865 2.54066L14.8108 5.86495L7.10817 13.5405L3.78389 10.2433L11.4865 2.54066ZM3.35147 11.3244L6.0271 14L2.59469 14.7568L3.35147 11.3244Z" fill="#106DB6"/>
<path d="M19.054 18.9189H0.946055C0.647515 18.9189 0.405518 19.1609 0.405518 19.4594C0.405518 19.7579 0.647515 19.9999 0.946055 19.9999H19.054C19.3526 19.9999 19.5946 19.7579 19.5946 19.4594C19.5946 19.1609 19.3526 18.9189 19.054 18.9189Z" fill="#106DB6"/>
</svg>
